# xmcd
#
# Track frame offsets: 
#        183
#        14585
#        33760
#        46170
#        61483
#        74585
#        90920
#        111285
#        126525
#        142935
#
# Disc length: 2302 seconds
#
# Revision: 3
# Processed by: cddbd v1.5PL3 Copyright (c) Steve Scherf et al.
# Submitted via: ExactAudioCopy v0.90b4
#
DISCID=8808fc0a
DTITLE=Astor Piazzolla - Original tangos from Argentina [CD1]
DYEAR=1900
DGENRE=Tango
TTITLE0=Inspiración
TTITLE1=Adiós Nonino
TTITLE2=Calambre
TTITLE3=Prepárense
TTITLE4=Redención
TTITLE5=Triunfal
TTITLE6=Balada para un loco
TTITLE7=Chiquilín de bachín
TTITLE8=Verano porteño
TTITLE9=Invierno porteño
EXTD=
EXTT0=
EXTT1=
EXTT2=
EXTT3=
EXTT4=
EXTT5=
EXTT6=
EXTT7=
EXTT8=
EXTT9=
PLAYORDER=
